<svg width="49" height="83" viewBox="0 0 49 83" fill="none" xmlns="http://www.w3.org/2000/svg">
<path id="Vector" d="M0.945953 67.8889V70.6117L19.5813 83V62.5832L29.4821 57.3843L29.6487 79.5533L48.0541 66.3342V43.4496L0.945953 67.8889ZM15.9479 76.1231L6.66588 69.9536L15.9479 65.0756V76.1313V76.1231ZM44.4127 64.3682L33.2267 72.3967L33.0918 56.0517L44.4127 50.1208V64.3764V64.3682ZM44.4127 45.3251V30.8967L32.949 36.9264L33.068 51.2971L28.9665 53.4441L28.8475 39.0816L20.0573 43.6717V58.1247L15.9399 60.2799V45.8515L4.56355 51.8236V66.2602L0.945953 67.8889V48.8951L19.5813 39.1062V39.7067L29.3076 34.6066V33.9979L48.0461 24.1432V43.4413L44.4127 45.3168V45.3251ZM0.945953 48.8951V25.1139L19.5813 14.8067V39.098L15.9479 41.0064V21.0996L4.57148 27.3842V47.0278L0.945953 48.8951ZM29.2997 33.9979L29.0934 10.0768L48.0461 0V24.1432L44.4127 26.0928V6.16125L32.7427 12.3636L32.9093 32.1471L29.2997 33.9897V33.9979Z" fill="url(#paint0_linear_75_92)"/>
<defs>
<linearGradient id="paint0_linear_75_92" x1="24.5" y1="0" x2="24.5" y2="83" gradientUnits="userSpaceOnUse">
<stop stop-color="#B0E8AF"/>
<stop offset="0.19" stop-color="#ADE6BA"/>
<stop offset="0.31" stop-color="#B1E4A9"/>
<stop offset="0.4" stop-color="#A3E0B0"/>
<stop offset="0.48" stop-color="#9EDA99"/>
<stop offset="0.51" stop-color="#B195D8"/>
<stop offset="0.52" stop-color="#9CD693"/>
<stop offset="0.81" stop-color="#7FC27E"/>
<stop offset="0.99" stop-color="#0EB100"/>
</linearGradient>
</defs>
</svg>
